0
SECTION
2
HEADER
9
$ACADVER
1
AC1009
9
$INSUNITS
70
4
9
$MEASUREMENT
70
1
9
$EXTMIN
10
0.0000
20
-1090.9693
30
0.0
9
$EXTMAX
10
2425.7857
20
-0.0000
30
0.0
0
ENDSEC
0
SECTION
2
TABLES
0
TABLE
2
LAYER
70
8
0
LAYER
2
SCHNITTKANTE
70
0
62
7
6
CONTINUOUS
0
LAYER
2
STOFFBRUCH
70
0
62
6
6
CONTINUOUS
0
LAYER
2
ABNAEHER
70
0
62
1
6
CONTINUOUS
0
LAYER
2
HILFSLINIE
70
0
62
8
6
CONTINUOUS
0
LAYER
2
FADENLAUF
70
0
62
3
6
CONTINUOUS
0
LAYER
2
KNIPS
70
0
62
5
6
CONTINUOUS
0
LAYER
2
SCHLITZ
70
0
62
4
6
CONTINUOUS
0
LAYER
2
TEXT
70
0
62
2
6
CONTINUOUS
0
ENDTAB
0
ENDSEC
0
SECTION
2
ENTITIES
0
POLYLINE
8
SCHNITTKANTE
66
1
10
0.0
20
0.0
30
0.0
70
1
0
VERTEX
8
SCHNITTKANTE
10
189.8984
20
-8.4069
30
0.0
0
VERTEX
8
SCHNITTKANTE
10
189.8704
20
-8.3256
30
0.0
0
VERTEX
8
SCHNITTKANTE
10
189.2828
20
-5.7440
30
0.0
0
VERTEX
8
SCHNITTKANTE
10
188.9311
20
-2.9714
30
0.0
0
VERTEX
8
SCHNITTKANTE
10
188.8141
20
-0.0000
30
0.0
0
VERTEX
8
SCHNITTKANTE
10
62.3236
20
-41.0993
30
0.0
0
VERTEX
8
SCHNITTKANTE
10
63.4969
20
-49.7693
30
0.0
0
VERTEX
8
SCHNITTKANTE
10
64.8161
20
-58.6944
30
0.0
0
VERTEX
8
SCHNITTKANTE
10
66.2325
20
-67.7896
30
0.0
0
VERTEX
8
SCHNITTKANTE
10
67.6976
20
-76.9697
30
0.0
0
VERTEX
8
SCHNITTKANTE
10
69.1626
20
-86.1499
30
0.0
0
VERTEX
8
SCHNITTKANTE
10
70.5791
20
-95.2451
30
0.0
0
VERTEX
8
SCHNITTKANTE
10
71.8982
20
-104.1702
30
0.0
0
VERTEX
8
SCHNITTKANTE
10
73.0715
20
-112.8402
30
0.0
0
VERTEX
8
SCHNITTKANTE
10
74.0503
20
-121.1702
30
0.0
0
VERTEX
8
SCHNITTKANTE
10
74.7860
20
-129.0750
30
0.0
0
VERTEX
8
SCHNITTKANTE
10
75.2299
20
-136.4698
30
0.0
0
VERTEX
8
SCHNITTKANTE
10
75.3333
20
-143.2694
30
0.0
0
VERTEX
8
SCHNITTKANTE
10
75.2083
20
-149.4172
30
0.0
0
VERTEX
8
SCHNITTKANTE
10
74.9790
20
-154.9698
30
0.0
0
VERTEX
8
SCHNITTKANTE
10
74.6153
20
-160.0124
30
0.0
0
VERTEX
8
SCHNITTKANTE
10
74.0871
20
-164.6298
30
0.0
0
VERTEX
8
SCHNITTKANTE
10
73.3645
20
-168.9071
30
0.0
0
VERTEX
8
SCHNITTKANTE
10
72.4173
20
-172.9294
30
0.0
0
VERTEX
8
SCHNITTKANTE
10
71.2154
20
-176.7817
30
0.0
0
VERTEX
8
SCHNITTKANTE
10
69.7288
20
-180.5489
30
0.0
0
VERTEX
8
SCHNITTKANTE
10
67.9273
20
-184.3161
30
0.0
0
VERTEX
8
SCHNITTKANTE
10
65.7810
20
-188.1684
30
0.0
0
VERTEX
8
SCHNITTKANTE
10
63.2597
20
-192.1907
30
0.0
0
VERTEX
8
SCHNITTKANTE
10
60.3333
20
-196.4680
30
0.0
0
VERTEX
8
SCHNITTKANTE
10
56.8927
20
-200.9013
30
0.0
0
VERTEX
8
SCHNITTKANTE
10
52.9012
20
-205.3345
30
0.0
0
VERTEX
8
SCHNITTKANTE
10
48.4375
20
-209.7677
30
0.0
0
VERTEX
8
SCHNITTKANTE
10
43.5802
20
-214.2009
30
0.0
0
VERTEX
8
SCHNITTKANTE
10
38.4082
20
-218.6341
30
0.0
0
VERTEX
8
SCHNITTKANTE
10
33.0000
20
-223.0674
30
0.0
0
VERTEX
8
SCHNITTKANTE
10
27.4344
20
-227.5006
30
0.0
0
VERTEX
8
SCHNITTKANTE
10
21.7901
20
-231.9338
30
0.0
0
VERTEX
8
SCHNITTKANTE
10
16.1458
20
-236.3670
30
0.0
0
VERTEX
8
SCHNITTKANTE
10
10.5802
20
-240.8002
30
0.0
0
VERTEX
8
SCHNITTKANTE
10
5.1721
20
-245.2334
30
0.0
0
VERTEX
8
SCHNITTKANTE
10
0.0000
20
-249.6667
30
0.0
0
VERTEX
8
SCHNITTKANTE
10
10.0000
20
-437.6667
30
0.0
0
VERTEX
8
SCHNITTKANTE
10
14.7670
20
-437.7426
30
0.0
0
VERTEX
8
SCHNITTKANTE
10
19.5339
20
-437.9550
30
0.0
0
VERTEX
8
SCHNITTKANTE
10
24.3009
20
-438.2805
30
0.0
0
VERTEX
8
SCHNITTKANTE
10
29.0678
20
-438.6958
30
0.0
0
VERTEX
8
SCHNITTKANTE
10
30.8057
20
-438.8714
30
0.0
0
VERTEX
8
SCHNITTKANTE
10
42.6667
20
-317.6667
30
0.0
0
VERTEX
8
SCHNITTKANTE
10
54.5277
20
-441.4616
30
0.0
0
VERTEX
8
SCHNITTKANTE
10
57.6696
20
-441.7678
30
0.0
0
VERTEX
8
SCHNITTKANTE
10
62.4366
20
-442.1591
30
0.0
0
VERTEX
8
SCHNITTKANTE
10
67.2035
20
-442.4537
30
0.0
0
VERTEX
8
SCHNITTKANTE
10
71.9705
20
-442.6283
30
0.0
0
VERTEX
8
SCHNITTKANTE
10
76.7374
20
-442.6678
30
0.0
0
VERTEX
8
SCHNITTKANTE
10
81.5044
20
-442.6875
30
0.0
0
VERTEX
8
SCHNITTKANTE
10
86.2714
20
-442.7308
30
0.0
0
VERTEX
8
SCHNITTKANTE
10
91.0383
20
-442.7962
30
0.0
0
VERTEX
8
SCHNITTKANTE
10
95.8053
20
-442.8823
30
0.0
0
VERTEX
8
SCHNITTKANTE
10
100.5722
20
-442.9874
30
0.0
0
VERTEX
8
SCHNITTKANTE
10
105.3392
20
-443.1102
30
0.0
0
VERTEX
8
SCHNITTKANTE
10
110.1062
20
-443.2491
30
0.0
0
VERTEX
8
SCHNITTKANTE
10
114.8731
20
-443.4026
30
0.0
0
VERTEX
8
SCHNITTKANTE
10
119.6401
20
-443.5694
30
0.0
0
VERTEX
8
SCHNITTKANTE
10
124.4071
20
-443.7478
30
0.0
0
VERTEX
8
SCHNITTKANTE
10
129.1740
20
-443.9364
30
0.0
0
VERTEX
8
SCHNITTKANTE
10
133.9410
20
-444.1337
30
0.0
0
VERTEX
8
SCHNITTKANTE
10
138.7079
20
-444.3383
30
0.0
0
VERTEX
8
SCHNITTKANTE
10
140.6942
20
-444.4259
30
0.0
0
VERTEX
8
SCHNITTKANTE
10
157.0737
20
-347.6667
30
0.0
0
VERTEX
8
SCHNITTKANTE
10
173.4532
20
-445.9075
30
0.0
0
VERTEX
8
SCHNITTKANTE
10
176.8436
20
-446.0560
30
0.0
0
VERTEX
8
SCHNITTKANTE
10
181.6106
20
-446.2585
30
0.0
0
VERTEX
8
SCHNITTKANTE
10
186.3775
20
-446.4534
30
0.0
0
VERTEX
8
SCHNITTKANTE
10
191.1445
20
-446.6392
30
0.0
0
VERTEX
8
SCHNITTKANTE
10
195.9115
20
-446.8143
30
0.0
0
VERTEX
8
SCHNITTKANTE
10
200.6784
20
-446.9774
30
0.0
0
VERTEX
8
SCHNITTKANTE
10
205.4454
20
-447.1268
30
0.0
0
VERTEX
8
SCHNITTKANTE
10
210.2123
20
-447.2611
30
0.0
0
VERTEX
8
SCHNITTKANTE
10
214.9793
20
-447.3788
30
0.0
0
VERTEX
8
SCHNITTKANTE
10
219.7463
20
-447.4785
30
0.0
0
VERTEX
8
SCHNITTKANTE
10
224.5132
20
-447.5586
30
0.0
0
VERTEX
8
SCHNITTKANTE
10
229.2802
20
-447.6176
30
0.0
0
VERTEX
8
SCHNITTKANTE
10
234.0471
20
-447.6542
30
0.0
0
VERTEX
8
SCHNITTKANTE
10
238.8141
20
-447.6667
30
0.0
0
VERTEX
8
SCHNITTKANTE
10
238.8141
20
-447.6667
30
0.0
0
VERTEX
8
SCHNITTKANTE
10
240.9154
20
-403.9590
30
0.0
0
SEQEND
8
SCHNITTKANTE
0
POLYLINE
8
ABNAEHER
66
1
10
0.0
20
0.0
30
0.0
70
0
0
VERTEX
8
ABNAEHER
10
140.6942
20
-444.4259
30
0.0
0
VERTEX
8
ABNAEHER
10
157.0737
20
-347.6667
30
0.0
0
SEQEND
8
ABNAEHER
0
POLYLINE
8
ABNAEHER
66
1
10
0.0
20
0.0
30
0.0
70
0
0
VERTEX
8
ABNAEHER
10
157.0737
20
-347.6667
30
0.0
0
VERTEX
8
ABNAEHER
10
173.4532
20
-445.9075
30
0.0
0
SEQEND
8
ABNAEHER
0
POLYLINE
8
ABNAEHER
66
1
10
0.0
20
0.0
30
0.0
70
0
0
VERTEX
8
ABNAEHER
10
30.8057
20
-438.8714
30
0.0
0
VERTEX
8
ABNAEHER
10
42.6667
20
-317.6667
30
0.0
0
SEQEND
8
ABNAEHER
0
POLYLINE
8
ABNAEHER
66
1
10
0.0
20
0.0
30
0.0
70
0
0
VERTEX
8
ABNAEHER
10
42.6667
20
-317.6667
30
0.0
0
VERTEX
8
ABNAEHER
10
54.5277
20
-441.4616
30
0.0
0
SEQEND
8
ABNAEHER
0
POLYLINE
8
SCHLITZ
66
1
10
0.0
20
0.0
30
0.0
70
0
0
VERTEX
8
SCHLITZ
10
238.8141
20
-447.6667
30
0.0
0
VERTEX
8
SCHLITZ
10
238.8141
20
-247.6667
30
0.0
0
SEQEND
8
SCHLITZ
0
POLYLINE
8
FADENLAUF
66
1
10
0.0
20
0.0
30
0.0
70
0
0
VERTEX
8
FADENLAUF
10
178.8141
20
-167.6667
30
0.0
0
VERTEX
8
FADENLAUF
10
178.8141
20
-387.6667
30
0.0
0
SEQEND
8
FADENLAUF
0
POLYLINE
8
FADENLAUF
66
1
10
0.0
20
0.0
30
0.0
70
0
0
VERTEX
8
FADENLAUF
10
168.8141
20
-367.6667
30
0.0
0
VERTEX
8
FADENLAUF
10
178.8141
20
-387.6667
30
0.0
0
VERTEX
8
FADENLAUF
10
188.8141
20
-367.6667
30
0.0
0
SEQEND
8
FADENLAUF
0
TEXT
8
TEXT
10
98.8141
20
-287.6667
30
0.0
40
9.0000
1
RT rechts 1x
0
TEXT
8
TEXT
10
148.8141
20
-257.6667
30
0.0
40
6.0000
1
hM = Naht + Verschluss
0
POLYLINE
8
SCHNITTKANTE
66
1
10
0.0
20
0.0
30
0.0
70
1
0
VERTEX
8
SCHNITTKANTE
10
300.9154
20
-82.0000
30
0.0
0
VERTEX
8
SCHNITTKANTE
10
310.9154
20
-270.0000
30
0.0
0
VERTEX
8
SCHNITTKANTE
10
315.6824
20
-270.0760
30
0.0
0
VERTEX
8
SCHNITTKANTE
10
320.4494
20
-270.2883
30
0.0
0
VERTEX
8
SCHNITTKANTE
10
325.2163
20
-270.6138
30
0.0
0
VERTEX
8
SCHNITTKANTE
10
329.9833
20
-271.0291
30
0.0
0
VERTEX
8
SCHNITTKANTE
10
331.7211
20
-271.2047
30
0.0
0
VERTEX
8
SCHNITTKANTE
10
343.5821
20
-150.0000
30
0.0
0
VERTEX
8
SCHNITTKANTE
10
355.4431
20
-273.7950
30
0.0
0
VERTEX
8
SCHNITTKANTE
10
358.5850
20
-274.1012
30
0.0
0
VERTEX
8
SCHNITTKANTE
10
363.3520
20
-274.4924
30
0.0
0
VERTEX
8
SCHNITTKANTE
10
368.1190
20
-274.7870
30
0.0
0
VERTEX
8
SCHNITTKANTE
10
372.8859
20
-274.9616
30
0.0
0
VERTEX
8
SCHNITTKANTE
10
377.6529
20
-275.0011
30
0.0
0
VERTEX
8
SCHNITTKANTE
10
382.4198
20
-275.0208
30
0.0
0
VERTEX
8
SCHNITTKANTE
10
387.1868
20
-275.0642
30
0.0
0
VERTEX
8
SCHNITTKANTE
10
391.9538
20
-275.1296
30
0.0
0
VERTEX
8
SCHNITTKANTE
10
396.7207
20
-275.2156
30
0.0
0
VERTEX
8
SCHNITTKANTE
10
401.4877
20
-275.3207
30
0.0
0
VERTEX
8
SCHNITTKANTE
10
406.2546
20
-275.4435
30
0.0
0
VERTEX
8
SCHNITTKANTE
10
411.0216
20
-275.5824
30
0.0
0
VERTEX
8
SCHNITTKANTE
10
415.7886
20
-275.7360
30
0.0
0
VERTEX
8
SCHNITTKANTE
10
420.5555
20
-275.9027
30
0.0
0
VERTEX
8
SCHNITTKANTE
10
425.3225
20
-276.0811
30
0.0
0
VERTEX
8
SCHNITTKANTE
10
430.0894
20
-276.2698
30
0.0
0
VERTEX
8
SCHNITTKANTE
10
434.8564
20
-276.4671
30
0.0
0
VERTEX
8
SCHNITTKANTE
10
439.6234
20
-276.6716
30
0.0
0
VERTEX
8
SCHNITTKANTE
10
441.6097
20
-276.7592
30
0.0
0
VERTEX
8
SCHNITTKANTE
10
457.9892
20
-180.0000
30
0.0
0
VERTEX
8
SCHNITTKANTE
10
474.3687
20
-278.2408
30
0.0
0
VERTEX
8
SCHNITTKANTE
10
477.7590
20
-278.3893
30
0.0
0
VERTEX
8
SCHNITTKANTE
10
482.5260
20
-278.5919
30
0.0
0
VERTEX
8
SCHNITTKANTE
10
487.2930
20
-278.7868
30
0.0
0
VERTEX
8
SCHNITTKANTE
10
492.0599
20
-278.9725
30
0.0
0
VERTEX
8
SCHNITTKANTE
10
496.8269
20
-279.1477
30
0.0
0
VERTEX
8
SCHNITTKANTE
10
501.5939
20
-279.3107
30
0.0
0
VERTEX
8
SCHNITTKANTE
10
506.3608
20
-279.4601
30
0.0
0
VERTEX
8
SCHNITTKANTE
10
511.1278
20
-279.5944
30
0.0
0
VERTEX
8
SCHNITTKANTE
10
515.8947
20
-279.7121
30
0.0
0
VERTEX
8
SCHNITTKANTE
10
520.6617
20
-279.8118
30
0.0
0
VERTEX
8
SCHNITTKANTE
10
525.4287
20
-279.8919
30
0.0
0
VERTEX
8
SCHNITTKANTE
10
530.1956
20
-279.9510
30
0.0
0
VERTEX
8
SCHNITTKANTE
10
534.9626
20
-279.9875
30
0.0
0
VERTEX
8
SCHNITTKANTE
10
539.7295
20
-280.0000
30
0.0
0
VERTEX
8
SCHNITTKANTE
10
539.7295
20
-280.0000
30
0.0
0
VERTEX
8
SCHNITTKANTE
10
542.5362
20
-221.6218
30
0.0
0
SEQEND
8
SCHNITTKANTE
0
POLYLINE
8
ABNAEHER
66
1
10
0.0
20
0.0
30
0.0
70
0
0
VERTEX
8
ABNAEHER
10
441.6097
20
-276.7592
30
0.0
0
VERTEX
8
ABNAEHER
10
457.9892
20
-180.0000
30
0.0
0
SEQEND
8
ABNAEHER
0
POLYLINE
8
ABNAEHER
66
1
10
0.0
20
0.0
30
0.0
70
0
0
VERTEX
8
ABNAEHER
10
457.9892
20
-180.0000
30
0.0
0
VERTEX
8
ABNAEHER
10
474.3687
20
-278.2408
30
0.0
0
SEQEND
8
ABNAEHER
0
POLYLINE
8
ABNAEHER
66
1
10
0.0
20
0.0
30
0.0
70
0
0
VERTEX
8
ABNAEHER
10
331.7211
20
-271.2047
30
0.0
0
VERTEX
8
ABNAEHER
10
343.5821
20
-150.0000
30
0.0
0
SEQEND
8
ABNAEHER
0
POLYLINE
8
ABNAEHER
66
1
10
0.0
20
0.0
30
0.0
70
0
0
VERTEX
8
ABNAEHER
10
343.5821
20
-150.0000
30
0.0
0
VERTEX
8
ABNAEHER
10
355.4431
20
-273.7950
30
0.0
0
SEQEND
8
ABNAEHER
0
POLYLINE
8
SCHLITZ
66
1
10
0.0
20
0.0
30
0.0
70
0
0
VERTEX
8
SCHLITZ
10
539.7295
20
-280.0000
30
0.0
0
VERTEX
8
SCHLITZ
10
539.7295
20
-80.0000
30
0.0
0
SEQEND
8
SCHLITZ
0
POLYLINE
8
FADENLAUF
66
1
10
0.0
20
0.0
30
0.0
70
0
0
VERTEX
8
FADENLAUF
10
479.7295
20
-0.0000
30
0.0
0
VERTEX
8
FADENLAUF
10
479.7295
20
-220.0000
30
0.0
0
SEQEND
8
FADENLAUF
0
POLYLINE
8
FADENLAUF
66
1
10
0.0
20
0.0
30
0.0
70
0
0
VERTEX
8
FADENLAUF
10
469.7295
20
-200.0000
30
0.0
0
VERTEX
8
FADENLAUF
10
479.7295
20
-220.0000
30
0.0
0
VERTEX
8
FADENLAUF
10
489.7295
20
-200.0000
30
0.0
0
SEQEND
8
FADENLAUF
0
TEXT
8
TEXT
10
399.7295
20
-120.0000
30
0.0
40
9.0000
1
RT links 1x
0
TEXT
8
TEXT
10
449.7295
20
-90.0000
30
0.0
40
6.0000
1
hM = Naht + Verschluss
0
POLYLINE
8
SCHNITTKANTE
66
1
10
0.0
20
0.0
30
0.0
70
1
0
VERTEX
8
SCHNITTKANTE
10
612.5362
20
-262.0000
30
0.0
0
VERTEX
8
SCHNITTKANTE
10
612.5362
20
-24.0000
30
0.0
0
VERTEX
8
SCHNITTKANTE
10
843.6709
20
-74.0000
30
0.0
0
VERTEX
8
SCHNITTKANTE
10
834.2028
20
-252.0000
30
0.0
0
VERTEX
8
SCHNITTKANTE
10
829.5848
20
-252.0128
30
0.0
0
VERTEX
8
SCHNITTKANTE
10
824.9667
20
-252.0506
30
0.0
0
VERTEX
8
SCHNITTKANTE
10
820.3487
20
-252.1123
30
0.0
0
VERTEX
8
SCHNITTKANTE
10
815.7306
20
-252.1968
30
0.0
0
VERTEX
8
SCHNITTKANTE
10
811.1126
20
-252.3029
30
0.0
0
VERTEX
8
SCHNITTKANTE
10
806.4945
20
-252.4297
30
0.0
0
VERTEX
8
SCHNITTKANTE
10
801.8765
20
-252.5760
30
0.0
0
VERTEX
8
SCHNITTKANTE
10
797.2584
20
-252.7407
30
0.0
0
VERTEX
8
SCHNITTKANTE
10
792.6403
20
-252.9229
30
0.0
0
VERTEX
8
SCHNITTKANTE
10
788.0223
20
-253.1212
30
0.0
0
VERTEX
8
SCHNITTKANTE
10
783.4042
20
-253.3348
30
0.0
0
VERTEX
8
SCHNITTKANTE
10
778.7862
20
-253.5625
30
0.0
0
VERTEX
8
SCHNITTKANTE
10
774.1681
20
-253.8032
30
0.0
0
VERTEX
8
SCHNITTKANTE
10
769.5501
20
-254.0558
30
0.0
0
VERTEX
8
SCHNITTKANTE
10
764.9320
20
-254.3193
30
0.0
0
VERTEX
8
SCHNITTKANTE
10
760.3140
20
-254.5926
30
0.0
0
VERTEX
8
SCHNITTKANTE
10
755.6959
20
-254.8745
30
0.0
0
VERTEX
8
SCHNITTKANTE
10
751.0778
20
-255.1641
30
0.0
0
VERTEX
8
SCHNITTKANTE
10
746.4598
20
-255.4601
30
0.0
0
VERTEX
8
SCHNITTKANTE
10
741.8417
20
-255.7616
30
0.0
0
VERTEX
8
SCHNITTKANTE
10
737.2237
20
-256.0674
30
0.0
0
VERTEX
8
SCHNITTKANTE
10
732.6056
20
-256.3764
30
0.0
0
VERTEX
8
SCHNITTKANTE
10
727.9876
20
-256.6877
30
0.0
0
VERTEX
8
SCHNITTKANTE
10
723.3695
20
-257.0000
30
0.0
0
VERTEX
8
SCHNITTKANTE
10
718.7515
20
-257.3123
30
0.0
0
VERTEX
8
SCHNITTKANTE
10
718.5362
20
-257.3268
30
0.0
0
VERTEX
8
SCHNITTKANTE
10
706.5362
20
-90.0000
30
0.0
0
VERTEX
8
SCHNITTKANTE
10
694.5362
20
-258.9065
30
0.0
0
VERTEX
8
SCHNITTKANTE
10
691.0431
20
-259.1255
30
0.0
0
VERTEX
8
SCHNITTKANTE
10
686.4251
20
-259.4074
30
0.0
0
VERTEX
8
SCHNITTKANTE
10
681.8070
20
-259.6807
30
0.0
0
VERTEX
8
SCHNITTKANTE
10
677.1890
20
-259.9442
30
0.0
0
VERTEX
8
SCHNITTKANTE
10
672.5709
20
-260.1968
30
0.0
0
VERTEX
8
SCHNITTKANTE
10
667.9528
20
-260.4375
30
0.0
0
VERTEX
8
SCHNITTKANTE
10
663.3348
20
-260.6652
30
0.0
0
VERTEX
8
SCHNITTKANTE
10
658.7167
20
-260.8788
30
0.0
0
VERTEX
8
SCHNITTKANTE
10
654.0987
20
-261.0771
30
0.0
0
VERTEX
8
SCHNITTKANTE
10
649.4806
20
-261.2593
30
0.0
0
VERTEX
8
SCHNITTKANTE
10
644.8626
20
-261.4240
30
0.0
0
VERTEX
8
SCHNITTKANTE
10
640.2445
20
-261.5703
30
0.0
0
VERTEX
8
SCHNITTKANTE
10
635.6265
20
-261.6971
30
0.0
0
VERTEX
8
SCHNITTKANTE
10
631.0084
20
-261.8032
30
0.0
0
VERTEX
8
SCHNITTKANTE
10
626.3903
20
-261.8877
30
0.0
0
VERTEX
8
SCHNITTKANTE
10
621.7723
20
-261.9494
30
0.0
0
VERTEX
8
SCHNITTKANTE
10
617.1542
20
-261.9872
30
0.0
0
SEQEND
8
SCHNITTKANTE
0
POLYLINE
8
ABNAEHER
66
1
10
0.0
20
0.0
30
0.0
70
0
0
VERTEX
8
ABNAEHER
10
694.5362
20
-258.9065
30
0.0
0
VERTEX
8
ABNAEHER
10
706.5362
20
-90.0000
30
0.0
0
SEQEND
8
ABNAEHER
0
POLYLINE
8
ABNAEHER
66
1
10
0.0
20
0.0
30
0.0
70
0
0
VERTEX
8
ABNAEHER
10
706.5362
20
-90.0000
30
0.0
0
VERTEX
8
ABNAEHER
10
718.5362
20
-257.3268
30
0.0
0
SEQEND
8
ABNAEHER
0
POLYLINE
8
HILFSLINIE
66
1
10
0.0
20
0.0
30
0.0
70
0
0
VERTEX
8
HILFSLINIE
10
706.5362
20
-0.0000
30
0.0
0
VERTEX
8
HILFSLINIE
10
706.5362
20
-180.0000
30
0.0
0
SEQEND
8
HILFSLINIE
0
POLYLINE
8
HILFSLINIE
66
1
10
0.0
20
0.0
30
0.0
70
0
0
VERTEX
8
HILFSLINIE
10
696.5362
20
-90.0000
30
0.0
0
VERTEX
8
HILFSLINIE
10
716.5362
20
-90.0000
30
0.0
0
SEQEND
8
HILFSLINIE
0
POLYLINE
8
FADENLAUF
66
1
10
0.0
20
0.0
30
0.0
70
0
0
VERTEX
8
FADENLAUF
10
612.5362
20
-22.0000
30
0.0
0
VERTEX
8
FADENLAUF
10
612.5362
20
-222.0000
30
0.0
0
SEQEND
8
FADENLAUF
0
POLYLINE
8
FADENLAUF
66
1
10
0.0
20
0.0
30
0.0
70
0
0
VERTEX
8
FADENLAUF
10
602.5362
20
-202.0000
30
0.0
0
VERTEX
8
FADENLAUF
10
612.5362
20
-222.0000
30
0.0
0
VERTEX
8
FADENLAUF
10
622.5362
20
-202.0000
30
0.0
0
SEQEND
8
FADENLAUF
0
TEXT
8
TEXT
10
632.5362
20
-142.0000
30
0.0
40
9.0000
1
lVT Untertritt 1x
0
TEXT
8
TEXT
10
632.5362
20
-172.0000
30
0.0
40
5.0000
1
BrP - Brustabnaeher 13.5 Grad offen
0
TEXT
8
TEXT
10
632.5362
20
-192.0000
30
0.0
40
5.0000
1
S.184 Schritt 26/27 am Buch pruefen
0
POLYLINE
8
SCHNITTKANTE
66
1
10
0.0
20
0.0
30
0.0
70
1
0
VERTEX
8
SCHNITTKANTE
10
1131.6142
20
-70.0000
30
0.0
0
VERTEX
8
SCHNITTKANTE
10
1138.3038
20
-69.9078
30
0.0
0
VERTEX
8
SCHNITTKANTE
10
1144.5319
20
-69.6260
30
0.0
0
VERTEX
8
SCHNITTKANTE
10
1150.3143
20
-69.1471
30
0.0
0
VERTEX
8
SCHNITTKANTE
10
1155.6667
20
-68.4633
30
0.0
0
VERTEX
8
SCHNITTKANTE
10
1160.6047
20
-67.5671
30
0.0
0
VERTEX
8
SCHNITTKANTE
10
1165.1442
20
-66.4508
30
0.0
0
VERTEX
8
SCHNITTKANTE
10
1169.3008
20
-65.1066
30
0.0
0
VERTEX
8
SCHNITTKANTE
10
1173.0902
20
-63.5271
30
0.0
0
VERTEX
8
SCHNITTKANTE
10
1176.5282
20
-61.7045
30
0.0
0
VERTEX
8
SCHNITTKANTE
10
1179.6305
20
-59.6313
30
0.0
0
VERTEX
8
SCHNITTKANTE
10
1182.4128
20
-57.2996
30
0.0
0
VERTEX
8
SCHNITTKANTE
10
1184.8909
20
-54.7020
30
0.0
0
VERTEX
8
SCHNITTKANTE
10
1187.0803
20
-51.8307
30
0.0
0
VERTEX
8
SCHNITTKANTE
10
1188.9969
20
-48.6782
30
0.0
0
VERTEX
8
SCHNITTKANTE
10
1190.6564
20
-45.2367
30
0.0
0
VERTEX
8
SCHNITTKANTE
10
1192.0744
20
-41.4987
30
0.0
0
VERTEX
8
SCHNITTKANTE
10
1193.2668
20
-37.4564
30
0.0
0
VERTEX
8
SCHNITTKANTE
10
1194.2492
20
-33.1023
30
0.0
0
VERTEX
8
SCHNITTKANTE
10
1195.0373
20
-28.4286
30
0.0
0
VERTEX
8
SCHNITTKANTE
10
1195.6469
20
-23.4278
30
0.0
0
VERTEX
8
SCHNITTKANTE
10
1196.0937
20
-18.0922
30
0.0
0
VERTEX
8
SCHNITTKANTE
10
1196.3933
20
-12.4141
30
0.0
0
VERTEX
8
SCHNITTKANTE
10
1196.5616
20
-6.3859
30
0.0
0
VERTEX
8
SCHNITTKANTE
10
1196.6142
20
-0.0000
30
0.0
0
VERTEX
8
SCHNITTKANTE
10
1313.4394
20
-47.2004
30
0.0
0
VERTEX
8
SCHNITTKANTE
10
1314.4799
20
-59.6313
30
0.0
0
VERTEX
8
SCHNITTKANTE
10
1315.5631
20
-72.6855
30
0.0
0
VERTEX
8
SCHNITTKANTE
10
1316.6747
20
-86.1550
30
0.0
0
VERTEX
8
SCHNITTKANTE
10
1317.8004
20
-99.8323
30
0.0
0
VERTEX
8
SCHNITTKANTE
10
1318.9262
20
-113.5096
30
0.0
0
VERTEX
8
SCHNITTKANTE
10
1320.0377
20
-126.9792
30
0.0
0
VERTEX
8
SCHNITTKANTE
10
1321.1209
20
-140.0333
30
0.0
0
VERTEX
8
SCHNITTKANTE
10
1322.1615
20
-152.4642
30
0.0
0
VERTEX
8
SCHNITTKANTE
10
1323.1453
20
-164.0642
30
0.0
0
VERTEX
8
SCHNITTKANTE
10
1324.0581
20
-174.6255
30
0.0
0
VERTEX
8
SCHNITTKANTE
10
1324.8858
20
-183.9405
30
0.0
0
VERTEX
8
SCHNITTKANTE
10
1325.6142
20
-191.8014
30
0.0
0
VERTEX
8
SCHNITTKANTE
10
1326.1393
20
-198.0591
30
0.0
0
VERTEX
8
SCHNITTKANTE
10
1326.4106
20
-202.8456
30
0.0
0
VERTEX
8
SCHNITTKANTE
10
1326.4937
20
-206.3742
30
0.0
0
VERTEX
8
SCHNITTKANTE
10
1326.4543
20
-208.8584
30
0.0
0
VERTEX
8
SCHNITTKANTE
10
1326.3582
20
-210.5118
30
0.0
0
VERTEX
8
SCHNITTKANTE
10
1326.2710
20
-211.5476
30
0.0
0
VERTEX
8
SCHNITTKANTE
10
1326.2584
20
-212.1795
30
0.0
0
VERTEX
8
SCHNITTKANTE
10
1326.3861
20
-212.6208
30
0.0
0
VERTEX
8
SCHNITTKANTE
10
1326.7199
20
-213.0851
30
0.0
0
VERTEX
8
SCHNITTKANTE
10
1327.3253
20
-213.7857
30
0.0
0
VERTEX
8
SCHNITTKANTE
10
1328.2682
20
-214.9362
30
0.0
0
VERTEX
8
SCHNITTKANTE
10
1329.6142
20
-216.7500
30
0.0
0
VERTEX
8
SCHNITTKANTE
10
1331.3811
20
-218.9886
30
0.0
0
VERTEX
8
SCHNITTKANTE
10
1333.5085
20
-221.2673
30
0.0
0
VERTEX
8
SCHNITTKANTE
10
1335.9449
20
-223.5804
30
0.0
0
VERTEX
8
SCHNITTKANTE
10
1338.6389
20
-225.9221
30
0.0
0
VERTEX
8
SCHNITTKANTE
10
1341.5389
20
-228.2868
30
0.0
0
VERTEX
8
SCHNITTKANTE
10
1344.5934
20
-230.6687
30
0.0
0
VERTEX
8
SCHNITTKANTE
10
1347.7509
20
-233.0620
30
0.0
0
VERTEX
8
SCHNITTKANTE
10
1350.9599
20
-235.4611
30
0.0
0
VERTEX
8
SCHNITTKANTE
10
1354.1689
20
-237.8601
30
0.0
0
VERTEX
8
SCHNITTKANTE
10
1357.3264
20
-240.2535
30
0.0
0
VERTEX
8
SCHNITTKANTE
10
1360.3809
20
-242.6353
30
0.0
0
VERTEX
8
SCHNITTKANTE
10
1363.2809
20
-245.0000
30
0.0
0
VERTEX
8
SCHNITTKANTE
10
1353.2809
20
-433.0000
30
0.0
0
VERTEX
8
SCHNITTKANTE
10
1348.6628
20
-433.0128
30
0.0
0
VERTEX
8
SCHNITTKANTE
10
1344.0447
20
-433.0506
30
0.0
0
VERTEX
8
SCHNITTKANTE
10
1339.4267
20
-433.1123
30
0.0
0
VERTEX
8
SCHNITTKANTE
10
1334.8086
20
-433.1968
30
0.0
0
VERTEX
8
SCHNITTKANTE
10
1330.1906
20
-433.3029
30
0.0
0
VERTEX
8
SCHNITTKANTE
10
1325.5725
20
-433.4297
30
0.0
0
VERTEX
8
SCHNITTKANTE
10
1320.9545
20
-433.5760
30
0.0
0
VERTEX
8
SCHNITTKANTE
10
1316.3364
20
-433.7407
30
0.0
0
VERTEX
8
SCHNITTKANTE
10
1311.7184
20
-433.9229
30
0.0
0
VERTEX
8
SCHNITTKANTE
10
1307.1003
20
-434.1212
30
0.0
0
VERTEX
8
SCHNITTKANTE
10
1302.4822
20
-434.3348
30
0.0
0
VERTEX
8
SCHNITTKANTE
10
1297.8642
20
-434.5625
30
0.0
0
VERTEX
8
SCHNITTKANTE
10
1293.2461
20
-434.8032
30
0.0
0
VERTEX
8
SCHNITTKANTE
10
1288.6281
20
-435.0558
30
0.0
0
VERTEX
8
SCHNITTKANTE
10
1284.0100
20
-435.3193
30
0.0
0
VERTEX
8
SCHNITTKANTE
10
1279.3920
20
-435.5926
30
0.0
0
VERTEX
8
SCHNITTKANTE
10
1274.7739
20
-435.8745
30
0.0
0
VERTEX
8
SCHNITTKANTE
10
1270.1559
20
-436.1641
30
0.0
0
VERTEX
8
SCHNITTKANTE
10
1265.5378
20
-436.4601
30
0.0
0
VERTEX
8
SCHNITTKANTE
10
1260.9197
20
-436.7616
30
0.0
0
VERTEX
8
SCHNITTKANTE
10
1256.3017
20
-437.0674
30
0.0
0
VERTEX
8
SCHNITTKANTE
10
1251.6836
20
-437.3764
30
0.0
0
VERTEX
8
SCHNITTKANTE
10
1247.0656
20
-437.6877
30
0.0
0
VERTEX
8
SCHNITTKANTE
10
1242.4475
20
-438.0000
30
0.0
0
VERTEX
8
SCHNITTKANTE
10
1237.8295
20
-438.3123
30
0.0
0
VERTEX
8
SCHNITTKANTE
10
1237.6142
20
-438.3268
30
0.0
0
VERTEX
8
SCHNITTKANTE
10
1225.6142
20
-271.0000
30
0.0
0
VERTEX
8
SCHNITTKANTE
10
1213.6142
20
-439.9065
30
0.0
0
VERTEX
8
SCHNITTKANTE
10
1210.1211
20
-440.1255
30
0.0
0
VERTEX
8
SCHNITTKANTE
10
1205.5031
20
-440.4074
30
0.0
0
VERTEX
8
SCHNITTKANTE
10
1200.8850
20
-440.6807
30
0.0
0
VERTEX
8
SCHNITTKANTE
10
1196.2670
20
-440.9442
30
0.0
0
VERTEX
8
SCHNITTKANTE
10
1191.6489
20
-441.1968
30
0.0
0
VERTEX
8
SCHNITTKANTE
10
1187.0309
20
-441.4375
30
0.0
0
VERTEX
8
SCHNITTKANTE
10
1182.4128
20
-441.6652
30
0.0
0
VERTEX
8
SCHNITTKANTE
10
1177.7947
20
-441.8788
30
0.0
0
VERTEX
8
SCHNITTKANTE
10
1173.1767
20
-442.0771
30
0.0
0
VERTEX
8
SCHNITTKANTE
10
1168.5586
20
-442.2593
30
0.0
0
VERTEX
8
SCHNITTKANTE
10
1163.9406
20
-442.4240
30
0.0
0
VERTEX
8
SCHNITTKANTE
10
1159.3225
20
-442.5703
30
0.0
0
VERTEX
8
SCHNITTKANTE
10
1154.7045
20
-442.6971
30
0.0
0
VERTEX
8
SCHNITTKANTE
10
1150.0864
20
-442.8032
30
0.0
0
VERTEX
8
SCHNITTKANTE
10
1145.4684
20
-442.8877
30
0.0
0
VERTEX
8
SCHNITTKANTE
10
1140.8503
20
-442.9494
30
0.0
0
VERTEX
8
SCHNITTKANTE
10
1136.2322
20
-442.9872
30
0.0
0
VERTEX
8
SCHNITTKANTE
10
1126.9961
20
-442.9872
30
0.0
0
VERTEX
8
SCHNITTKANTE
10
1122.3781
20
-442.9494
30
0.0
0
VERTEX
8
SCHNITTKANTE
10
1117.7600
20
-442.8877
30
0.0
0
VERTEX
8
SCHNITTKANTE
10
1113.1420
20
-442.8032
30
0.0
0
VERTEX
8
SCHNITTKANTE
10
1108.5239
20
-442.6971
30
0.0
0
VERTEX
8
SCHNITTKANTE
10
1103.9059
20
-442.5703
30
0.0
0
VERTEX
8
SCHNITTKANTE
10
1099.2878
20
-442.4240
30
0.0
0
VERTEX
8
SCHNITTKANTE
10
1094.6697
20
-442.2593
30
0.0
0
VERTEX
8
SCHNITTKANTE
10
1090.0517
20
-442.0771
30
0.0
0
VERTEX
8
SCHNITTKANTE
10
1085.4336
20
-441.8788
30
0.0
0
VERTEX
8
SCHNITTKANTE
10
1080.8156
20
-441.6652
30
0.0
0
VERTEX
8
SCHNITTKANTE
10
1076.1975
20
-441.4375
30
0.0
0
VERTEX
8
SCHNITTKANTE
10
1071.5795
20
-441.1968
30
0.0
0
VERTEX
8
SCHNITTKANTE
10
1066.9614
20
-440.9442
30
0.0
0
VERTEX
8
SCHNITTKANTE
10
1062.3434
20
-440.6807
30
0.0
0
VERTEX
8
SCHNITTKANTE
10
1057.7253
20
-440.4074
30
0.0
0
VERTEX
8
SCHNITTKANTE
10
1053.1072
20
-440.1255
30
0.0
0
VERTEX
8
SCHNITTKANTE
10
1049.6142
20
-439.9065
30
0.0
0
VERTEX
8
SCHNITTKANTE
10
1037.6142
20
-271.0000
30
0.0
0
VERTEX
8
SCHNITTKANTE
10
1025.6142
20
-438.3268
30
0.0
0
VERTEX
8
SCHNITTKANTE
10
1025.3989
20
-438.3123
30
0.0
0
VERTEX
8
SCHNITTKANTE
10
1020.7809
20
-438.0000
30
0.0
0
VERTEX
8
SCHNITTKANTE
10
1016.1628
20
-437.6877
30
0.0
0
VERTEX
8
SCHNITTKANTE
10
1011.5447
20
-437.3764
30
0.0
0
VERTEX
8
SCHNITTKANTE
10
1006.9267
20
-437.0674
30
0.0
0
VERTEX
8
SCHNITTKANTE
10
1002.3086
20
-436.7616
30
0.0
0
VERTEX
8
SCHNITTKANTE
10
997.6906
20
-436.4601
30
0.0
0
VERTEX
8
SCHNITTKANTE
10
993.0725
20
-436.1641
30
0.0
0
VERTEX
8
SCHNITTKANTE
10
988.4545
20
-435.8745
30
0.0
0
VERTEX
8
SCHNITTKANTE
10
983.8364
20
-435.5926
30
0.0
0
VERTEX
8
SCHNITTKANTE
10
979.2184
20
-435.3193
30
0.0
0
VERTEX
8
SCHNITTKANTE
10
974.6003
20
-435.0558
30
0.0
0
VERTEX
8
SCHNITTKANTE
10
969.9822
20
-434.8032
30
0.0
0
VERTEX
8
SCHNITTKANTE
10
965.3642
20
-434.5625
30
0.0
0
VERTEX
8
SCHNITTKANTE
10
960.7461
20
-434.3348
30
0.0
0
VERTEX
8
SCHNITTKANTE
10
956.1281
20
-434.1212
30
0.0
0
VERTEX
8
SCHNITTKANTE
10
951.5100
20
-433.9229
30
0.0
0
VERTEX
8
SCHNITTKANTE
10
946.8920
20
-433.7407
30
0.0
0
VERTEX
8
SCHNITTKANTE
10
942.2739
20
-433.5760
30
0.0
0
VERTEX
8
SCHNITTKANTE
10
937.6559
20
-433.4297
30
0.0
0
VERTEX
8
SCHNITTKANTE
10
933.0378
20
-433.3029
30
0.0
0
VERTEX
8
SCHNITTKANTE
10
928.4197
20
-433.1968
30
0.0
0
VERTEX
8
SCHNITTKANTE
10
923.8017
20
-433.1123
30
0.0
0
VERTEX
8
SCHNITTKANTE
10
919.1836
20
-433.0506
30
0.0
0
VERTEX
8
SCHNITTKANTE
10
914.5656
20
-433.0128
30
0.0
0
VERTEX
8
SCHNITTKANTE
10
909.9475
20
-433.0000
30
0.0
0
VERTEX
8
SCHNITTKANTE
10
903.6709
20
-315.0000
30
0.0
0
VERTEX
8
SCHNITTKANTE
10
1131.5169
20
-69.9987
30
0.0
0
VERTEX
8
SCHNITTKANTE
10
1131.6142
20
-70.0000
30
0.0
0
SEQEND
8
SCHNITTKANTE
0
POLYLINE
8
ABNAEHER
66
1
10
0.0
20
0.0
30
0.0
70
0
0
VERTEX
8
ABNAEHER
10
1213.6142
20
-439.9065
30
0.0
0
VERTEX
8
ABNAEHER
10
1225.6142
20
-271.0000
30
0.0
0
SEQEND
8
ABNAEHER
0
POLYLINE
8
ABNAEHER
66
1
10
0.0
20
0.0
30
0.0
70
0
0
VERTEX
8
ABNAEHER
10
1225.6142
20
-271.0000
30
0.0
0
VERTEX
8
ABNAEHER
10
1237.6142
20
-438.3268
30
0.0
0
SEQEND
8
ABNAEHER
0
POLYLINE
8
ABNAEHER
66
1
10
0.0
20
0.0
30
0.0
70
0
0
VERTEX
8
ABNAEHER
10
1049.6142
20
-439.9065
30
0.0
0
VERTEX
8
ABNAEHER
10
1037.6142
20
-271.0000
30
0.0
0
SEQEND
8
ABNAEHER
0
POLYLINE
8
ABNAEHER
66
1
10
0.0
20
0.0
30
0.0
70
0
0
VERTEX
8
ABNAEHER
10
1037.6142
20
-271.0000
30
0.0
0
VERTEX
8
ABNAEHER
10
1025.6142
20
-438.3268
30
0.0
0
SEQEND
8
ABNAEHER
0
POLYLINE
8
HILFSLINIE
66
1
10
0.0
20
0.0
30
0.0
70
0
0
VERTEX
8
HILFSLINIE
10
1225.6142
20
-181.0000
30
0.0
0
VERTEX
8
HILFSLINIE
10
1225.6142
20
-361.0000
30
0.0
0
SEQEND
8
HILFSLINIE
0
POLYLINE
8
HILFSLINIE
66
1
10
0.0
20
0.0
30
0.0
70
0
0
VERTEX
8
HILFSLINIE
10
1215.6142
20
-271.0000
30
0.0
0
VERTEX
8
HILFSLINIE
10
1235.6142
20
-271.0000
30
0.0
0
SEQEND
8
HILFSLINIE
0
POLYLINE
8
HILFSLINIE
66
1
10
0.0
20
0.0
30
0.0
70
0
0
VERTEX
8
HILFSLINIE
10
1037.6142
20
-181.0000
30
0.0
0
VERTEX
8
HILFSLINIE
10
1037.6142
20
-361.0000
30
0.0
0
SEQEND
8
HILFSLINIE
0
POLYLINE
8
HILFSLINIE
66
1
10
0.0
20
0.0
30
0.0
70
0
0
VERTEX
8
HILFSLINIE
10
1027.6142
20
-271.0000
30
0.0
0
VERTEX
8
HILFSLINIE
10
1047.6142
20
-271.0000
30
0.0
0
SEQEND
8
HILFSLINIE
0
POLYLINE
8
FADENLAUF
66
1
10
0.0
20
0.0
30
0.0
70
0
0
VERTEX
8
FADENLAUF
10
1131.6142
20
-203.0000
30
0.0
0
VERTEX
8
FADENLAUF
10
1131.6142
20
-403.0000
30
0.0
0
SEQEND
8
FADENLAUF
0
POLYLINE
8
FADENLAUF
66
1
10
0.0
20
0.0
30
0.0
70
0
0
VERTEX
8
FADENLAUF
10
1121.6142
20
-383.0000
30
0.0
0
VERTEX
8
FADENLAUF
10
1131.6142
20
-403.0000
30
0.0
0
VERTEX
8
FADENLAUF
10
1141.6142
20
-383.0000
30
0.0
0
SEQEND
8
FADENLAUF
0
TEXT
8
TEXT
10
1151.6142
20
-323.0000
30
0.0
40
9.0000
1
rVT Wickelteil 1x
0
TEXT
8
TEXT
10
1151.6142
20
-353.0000
30
0.0
40
5.0000
1
BrP - Brustabnaeher 13.5 Grad offen
0
TEXT
8
TEXT
10
1151.6142
20
-373.0000
30
0.0
40
5.0000
1
S.184 Schritt 26/27 am Buch pruefen
0
POLYLINE
8
SCHNITTKANTE
66
1
10
0.0
20
0.0
30
0.0
70
1
0
VERTEX
8
SCHNITTKANTE
10
1423.2809
20
-29.4900
30
0.0
0
VERTEX
8
SCHNITTKANTE
10
1427.8121
20
-29.4473
30
0.0
0
VERTEX
8
SCHNITTKANTE
10
1432.3434
20
-29.3255
30
0.0
0
VERTEX
8
SCHNITTKANTE
10
1436.8746
20
-29.1343
30
0.0
0
VERTEX
8
SCHNITTKANTE
10
1441.4059
20
-28.8833
30
0.0
0
VERTEX
8
SCHNITTKANTE
10
1445.9371
20
-28.5822
30
0.0
0
VERTEX
8
SCHNITTKANTE
10
1450.4684
20
-28.2407
30
0.0
0
VERTEX
8
SCHNITTKANTE
10
1454.9996
20
-27.8683
30
0.0
0
VERTEX
8
SCHNITTKANTE
10
1459.5309
20
-27.4748
30
0.0
0
VERTEX
8
SCHNITTKANTE
10
1464.0621
20
-27.0697
30
0.0
0
VERTEX
8
SCHNITTKANTE
10
1468.5934
20
-26.6627
30
0.0
0
VERTEX
8
SCHNITTKANTE
10
1473.1246
20
-26.2635
30
0.0
0
VERTEX
8
SCHNITTKANTE
10
1477.6559
20
-25.8817
30
0.0
0
VERTEX
8
SCHNITTKANTE
10
1482.1871
20
-25.5270
30
0.0
0
VERTEX
8
SCHNITTKANTE
10
1486.7184
20
-25.2089
30
0.0
0
VERTEX
8
SCHNITTKANTE
10
1491.2496
20
-24.9373
30
0.0
0
VERTEX
8
SCHNITTKANTE
10
1495.7809
20
-24.7215
30
0.0
0
VERTEX
8
SCHNITTKANTE
10
1499.1142
20
-24.6112
30
0.0
0
VERTEX
8
SCHNITTKANTE
10
1499.0951
20
-24.4455
30
0.0
0
VERTEX
8
SCHNITTKANTE
10
1503.3564
20
-23.7151
30
0.0
0
VERTEX
8
SCHNITTKANTE
10
1507.8187
20
-22.9218
30
0.0
0
VERTEX
8
SCHNITTKANTE
10
1512.2769
20
-22.1028
30
0.0
0
VERTEX
8
SCHNITTKANTE
10
1516.7316
20
-21.2606
30
0.0
0
VERTEX
8
SCHNITTKANTE
10
1521.1829
20
-20.3974
30
0.0
0
VERTEX
8
SCHNITTKANTE
10
1525.6314
20
-19.5155
30
0.0
0
VERTEX
8
SCHNITTKANTE
10
1530.0772
20
-18.6171
30
0.0
0
VERTEX
8
SCHNITTKANTE
10
1534.5209
20
-17.7046
30
0.0
0
VERTEX
8
SCHNITTKANTE
10
1538.9627
20
-16.7802
30
0.0
0
VERTEX
8
SCHNITTKANTE
10
1543.4030
20
-15.8462
30
0.0
0
VERTEX
8
SCHNITTKANTE
10
1547.8422
20
-14.9050
30
0.0
0
VERTEX
8
SCHNITTKANTE
10
1552.2805
20
-13.9587
30
0.0
0
VERTEX
8
SCHNITTKANTE
10
1556.7185
20
-13.0097
30
0.0
0
VERTEX
8
SCHNITTKANTE
10
1561.1564
20
-12.0603
30
0.0
0
VERTEX
8
SCHNITTKANTE
10
1565.5946
20
-11.1127
30
0.0
0
VERTEX
8
SCHNITTKANTE
10
1570.0334
20
-10.1692
30
0.0
0
VERTEX
8
SCHNITTKANTE
10
1574.4732
20
-9.2321
30
0.0
0
VERTEX
8
SCHNITTKANTE
10
1578.9144
20
-8.3037
30
0.0
0
VERTEX
8
SCHNITTKANTE
10
1583.3573
20
-7.3863
30
0.0
0
VERTEX
8
SCHNITTKANTE
10
1587.8022
20
-6.4821
30
0.0
0
VERTEX
8
SCHNITTKANTE
10
1592.2496
20
-5.5935
30
0.0
0
VERTEX
8
SCHNITTKANTE
10
1596.6998
20
-4.7227
30
0.0
0
VERTEX
8
SCHNITTKANTE
10
1601.1531
20
-3.8720
30
0.0
0
VERTEX
8
SCHNITTKANTE
10
1605.6099
20
-3.0437
30
0.0
0
VERTEX
8
SCHNITTKANTE
10
1610.0706
20
-2.2400
30
0.0
0
VERTEX
8
SCHNITTKANTE
10
1614.5354
20
-1.4633
30
0.0
0
VERTEX
8
SCHNITTKANTE
10
1619.0049
20
-0.7159
30
0.0
0
VERTEX
8
SCHNITTKANTE
10
1623.4793
20
-0.0000
30
0.0
0
VERTEX
8
SCHNITTKANTE
10
1626.9355
20
-9.5732
30
0.0
0
VERTEX
8
SCHNITTKANTE
10
1630.4734
20
-19.2306
30
0.0
0
VERTEX
8
SCHNITTKANTE
10
1634.0657
20
-28.9441
30
0.0
0
VERTEX
8
SCHNITTKANTE
10
1637.6853
20
-38.6857
30
0.0
0
VERTEX
8
SCHNITTKANTE
10
1641.3049
20
-48.4274
30
0.0
0
VERTEX
8
SCHNITTKANTE
10
1644.8973
20
-58.1409
30
0.0
0
VERTEX
8
SCHNITTKANTE
10
1648.4352
20
-67.7983
30
0.0
0
VERTEX
8
SCHNITTKANTE
10
1651.8914
20
-77.3715
30
0.0
0
VERTEX
8
SCHNITTKANTE
10
1655.2387
20
-86.8323
30
0.0
0
VERTEX
8
SCHNITTKANTE
10
1658.4499
20
-96.1528
30
0.0
0
VERTEX
8
SCHNITTKANTE
10
1661.4976
20
-105.3048
30
0.0
0
VERTEX
8
SCHNITTKANTE
10
1664.3548
20
-114.2602
30
0.0
0
VERTEX
8
SCHNITTKANTE
10
1667.0032
20
-123.0004
30
0.0
0
VERTEX
8
SCHNITTKANTE
10
1669.4610
20
-131.5440
30
0.0
0
VERTEX
8
SCHNITTKANTE
10
1671.7554
20
-139.9192
30
0.0
0
VERTEX
8
SCHNITTKANTE
10
1673.9137
20
-148.1539
30
0.0
0
VERTEX
8
SCHNITTKANTE
10
1675.9631
20
-156.2764
30
0.0
0
VERTEX
8
SCHNITTKANTE
10
1677.9307
20
-164.3146
30
0.0
0
VERTEX
8
SCHNITTKANTE
10
1679.8439
20
-172.2967
30
0.0
0
VERTEX
8
SCHNITTKANTE
10
1681.7299
20
-180.2507
30
0.0
0
VERTEX
8
SCHNITTKANTE
10
1683.6159
20
-188.2047
30
0.0
0
VERTEX
8
SCHNITTKANTE
10
1685.5291
20
-196.1867
30
0.0
0
VERTEX
8
SCHNITTKANTE
10
1687.4968
20
-204.2249
30
0.0
0
VERTEX
8
SCHNITTKANTE
10
1689.5461
20
-212.3474
30
0.0
0
VERTEX
8
SCHNITTKANTE
10
1894.8423
20
-1040.5856
30
0.0
0
VERTEX
8
SCHNITTKANTE
10
1877.5757
20
-1043.3108
30
0.0
0
VERTEX
8
SCHNITTKANTE
10
1859.9510
20
-1046.1390
30
0.0
0
VERTEX
8
SCHNITTKANTE
10
1842.0660
20
-1049.0421
30
0.0
0
VERTEX
8
SCHNITTKANTE
10
1824.0182
20
-1051.9920
30
0.0
0
VERTEX
8
SCHNITTKANTE
10
1805.9053
20
-1054.9607
30
0.0
0
VERTEX
8
SCHNITTKANTE
10
1787.8250
20
-1057.9200
30
0.0
0
VERTEX
8
SCHNITTKANTE
10
1769.8749
20
-1060.8419
30
0.0
0
VERTEX
8
SCHNITTKANTE
10
1752.1526
20
-1063.6982
30
0.0
0
VERTEX
8
SCHNITTKANTE
10
1734.7558
20
-1066.4608
30
0.0
0
VERTEX
8
SCHNITTKANTE
10
1717.7821
20
-1069.1017
30
0.0
0
VERTEX
8
SCHNITTKANTE
10
1701.3292
20
-1071.5928
30
0.0
0
VERTEX
8
SCHNITTKANTE
10
1685.4947
20
-1073.9060
30
0.0
0
VERTEX
8
SCHNITTKANTE
10
1670.3763
20
-1076.0131
30
0.0
0
VERTEX
8
SCHNITTKANTE
10
1656.0716
20
-1077.8861
30
0.0
0
VERTEX
8
SCHNITTKANTE
10
1642.4891
20
-1079.5337
30
0.0
0
VERTEX
8
SCHNITTKANTE
10
1629.4552
20
-1080.9938
30
0.0
0
VERTEX
8
SCHNITTKANTE
10
1616.9446
20
-1082.2817
30
0.0
0
VERTEX
8
SCHNITTKANTE
10
1604.9319
20
-1083.4127
30
0.0
0
VERTEX
8
SCHNITTKANTE
10
1593.3919
20
-1084.4024
30
0.0
0
VERTEX
8
SCHNITTKANTE
10
1582.2990
20
-1085.2662
30
0.0
0
VERTEX
8
SCHNITTKANTE
10
1571.6281
20
-1086.0193
30
0.0
0
VERTEX
8
SCHNITTKANTE
10
1561.3536
20
-1086.6774
30
0.0
0
VERTEX
8
SCHNITTKANTE
10
1551.4503
20
-1087.2556
30
0.0
0
VERTEX
8
SCHNITTKANTE
10
1541.8929
20
-1087.7695
30
0.0
0
VERTEX
8
SCHNITTKANTE
10
1532.6559
20
-1088.2345
30
0.0
0
VERTEX
8
SCHNITTKANTE
10
1523.7140
20
-1088.6660
30
0.0
0
VERTEX
8
SCHNITTKANTE
10
1515.0419
20
-1089.0794
30
0.0
0
VERTEX
8
SCHNITTKANTE
10
1506.6142
20
-1089.4900
30
0.0
0
VERTEX
8
SCHNITTKANTE
10
1498.6256
20
-1089.8474
30
0.0
0
VERTEX
8
SCHNITTKANTE
10
1491.2394
20
-1090.0990
30
0.0
0
VERTEX
8
SCHNITTKANTE
10
1484.3833
20
-1090.2576
30
0.0
0
VERTEX
8
SCHNITTKANTE
10
1477.9851
20
-1090.3358
30
0.0
0
VERTEX
8
SCHNITTKANTE
10
1471.9725
20
-1090.3464
30
0.0
0
VERTEX
8
SCHNITTKANTE
10
1466.2732
20
-1090.3020
30
0.0
0
VERTEX
8
SCHNITTKANTE
10
1460.8148
20
-1090.2153
30
0.0
0
VERTEX
8
SCHNITTKANTE
10
1455.5251
20
-1090.0990
30
0.0
0
VERTEX
8
SCHNITTKANTE
10
1450.3318
20
-1089.9658
30
0.0
0
VERTEX
8
SCHNITTKANTE
10
1445.1626
20
-1089.8283
30
0.0
0
VERTEX
8
SCHNITTKANTE
10
1439.9452
20
-1089.6993
30
0.0
0
VERTEX
8
SCHNITTKANTE
10
1434.6073
20
-1089.5915
30
0.0
0
VERTEX
8
SCHNITTKANTE
10
1429.0766
20
-1089.5175
30
0.0
0
VERTEX
8
SCHNITTKANTE
10
1423.2809
20
-1089.4900
30
0.0
0
SEQEND
8
SCHNITTKANTE
0
POLYLINE
8
SCHLITZ
66
1
10
0.0
20
0.0
30
0.0
70
0
0
VERTEX
8
SCHLITZ
10
1423.2809
20
-1089.4900
30
0.0
0
VERTEX
8
SCHLITZ
10
1423.2809
20
-469.4900
30
0.0
0
SEQEND
8
SCHLITZ
0
POLYLINE
8
FADENLAUF
66
1
10
0.0
20
0.0
30
0.0
70
0
0
VERTEX
8
FADENLAUF
10
1483.2809
20
-229.4900
30
0.0
0
VERTEX
8
FADENLAUF
10
1483.2809
20
-729.4900
30
0.0
0
SEQEND
8
FADENLAUF
0
POLYLINE
8
FADENLAUF
66
1
10
0.0
20
0.0
30
0.0
70
0
0
VERTEX
8
FADENLAUF
10
1473.2809
20
-709.4900
30
0.0
0
VERTEX
8
FADENLAUF
10
1483.2809
20
-729.4900
30
0.0
0
VERTEX
8
FADENLAUF
10
1493.2809
20
-709.4900
30
0.0
0
SEQEND
8
FADENLAUF
0
TEXT
8
TEXT
10
1433.2809
20
-779.4900
30
0.0
40
7.0000
1
Schlitz 62 cm ab Saum
0
TEXT
8
TEXT
10
1463.2809
20
-329.4900
30
0.0
40
9.0000
1
Rock VT 2x - vM = Naht
0
POLYLINE
8
SCHNITTKANTE
66
1
10
0.0
20
0.0
30
0.0
70
1
0
VERTEX
8
SCHNITTKANTE
10
1954.8423
20
-1036.1985
30
0.0
0
VERTEX
8
SCHNITTKANTE
10
2173.1119
20
-211.2844
30
0.0
0
VERTEX
8
SCHNITTKANTE
10
2175.2885
20
-203.1951
30
0.0
0
VERTEX
8
SCHNITTKANTE
10
2177.3821
20
-195.1887
30
0.0
0
VERTEX
8
SCHNITTKANTE
10
2179.4204
20
-187.2377
30
0.0
0
VERTEX
8
SCHNITTKANTE
10
2181.4309
20
-179.3143
30
0.0
0
VERTEX
8
SCHNITTKANTE
10
2183.4415
20
-171.3908
30
0.0
0
VERTEX
8
SCHNITTKANTE
10
2185.4798
20
-163.4398
30
0.0
0
VERTEX
8
SCHNITTKANTE
10
2187.5733
20
-155.4334
30
0.0
0
VERTEX
8
SCHNITTKANTE
10
2189.7499
20
-147.3441
30
0.0
0
VERTEX
8
SCHNITTKANTE
10
2192.0372
20
-139.1443
30
0.0
0
VERTEX
8
SCHNITTKANTE
10
2194.4628
20
-130.8061
30
0.0
0
VERTEX
8
SCHNITTKANTE
10
2197.0543
20
-122.3021
30
0.0
0
VERTEX
8
SCHNITTKANTE
10
2199.8396
20
-113.6046
30
0.0
0
VERTEX
8
SCHNITTKANTE
10
2202.8370
20
-104.6951
30
0.0
0
VERTEX
8
SCHNITTKANTE
10
2206.0280
20
-95.5921
30
0.0
0
VERTEX
8
SCHNITTKANTE
10
2209.3850
20
-86.3232
30
0.0
0
VERTEX
8
SCHNITTKANTE
10
2212.8804
20
-76.9160
30
0.0
0
VERTEX
8
SCHNITTKANTE
10
2216.4864
20
-67.3983
30
0.0
0
VERTEX
8
SCHNITTKANTE
10
2220.1755
20
-57.7976
30
0.0
0
VERTEX
8
SCHNITTKANTE
10
2223.9198
20
-48.1416
30
0.0
0
VERTEX
8
SCHNITTKANTE
10
2227.6919
20
-38.4580
30
0.0
0
VERTEX
8
SCHNITTKANTE
10
2231.4639
20
-28.7744
30
0.0
0
VERTEX
8
SCHNITTKANTE
10
2235.2083
20
-19.1184
30
0.0
0
VERTEX
8
SCHNITTKANTE
10
2238.8973
20
-9.5177
30
0.0
0
VERTEX
8
SCHNITTKANTE
10
2242.5034
20
-0.0000
30
0.0
0
VERTEX
8
SCHNITTKANTE
10
2246.9650
20
-0.7915
30
0.0
0
VERTEX
8
SCHNITTKANTE
10
2251.4194
20
-1.6250
30
0.0
0
VERTEX
8
SCHNITTKANTE
10
2255.8671
20
-2.4974
30
0.0
0
VERTEX
8
SCHNITTKANTE
10
2260.3086
20
-3.4056
30
0.0
0
VERTEX
8
SCHNITTKANTE
10
2264.7445
20
-4.3466
30
0.0
0
VERTEX
8
SCHNITTKANTE
10
2269.1753
20
-5.3174
30
0.0
0
VERTEX
8
SCHNITTKANTE
10
2273.6014
20
-6.3149
30
0.0
0
VERTEX
8
SCHNITTKANTE
10
2278.0234
20
-7.3361
30
0.0
0
VERTEX
8
SCHNITTKANTE
10
2282.4419
20
-8.3780
30
0.0
0
VERTEX
8
SCHNITTKANTE
10
2286.8574
20
-9.4376
30
0.0
0
VERTEX
8
SCHNITTKANTE
10
2291.2703
20
-10.5117
30
0.0
0
VERTEX
8
SCHNITTKANTE
10
2295.6813
20
-11.5974
30
0.0
0
VERTEX
8
SCHNITTKANTE
10
2300.0907
20
-12.6916
30
0.0
0
VERTEX
8
SCHNITTKANTE
10
2304.4993
20
-13.7912
30
0.0
0
VERTEX
8
SCHNITTKANTE
10
2308.9074
20
-14.8934
30
0.0
0
VERTEX
8
SCHNITTKANTE
10
2313.3156
20
-15.9949
30
0.0
0
VERTEX
8
SCHNITTKANTE
10
2317.7244
20
-17.0928
30
0.0
0
VERTEX
8
SCHNITTKANTE
10
2322.1344
20
-18.1840
30
0.0
0
VERTEX
8
SCHNITTKANTE
10
2324.8320
20
-18.8454
30
0.0
0
VERTEX
8
SCHNITTKANTE
10
2334.1445
20
-165.0259
30
0.0
0
VERTEX
8
SCHNITTKANTE
10
2343.4570
20
-23.2593
30
0.0
0
VERTEX
8
SCHNITTKANTE
10
2344.2199
20
-23.4339
30
0.0
0
VERTEX
8
SCHNITTKANTE
10
2348.6478
20
-24.4213
30
0.0
0
VERTEX
8
SCHNITTKANTE
10
2349.0554
20
-24.5095
30
0.0
0
VERTEX
8
SCHNITTKANTE
10
2371.4107
20
-27.6204
30
0.0
0
VERTEX
8
SCHNITTKANTE
10
2375.9420
20
-27.8749
30
0.0
0
VERTEX
8
SCHNITTKANTE
10
2380.4732
20
-28.1410
30
0.0
0
VERTEX
8
SCHNITTKANTE
10
2385.0045
20
-28.4124
30
0.0
0
VERTEX
8
SCHNITTKANTE
10
2389.5357
20
-28.6824
30
0.0
0
VERTEX
8
SCHNITTKANTE
10
2394.0670
20
-28.9448
30
0.0
0
VERTEX
8
SCHNITTKANTE
10
2398.5982
20
-29.1930
30
0.0
0
VERTEX
8
SCHNITTKANTE
10
2403.1295
20
-29.4207
30
0.0
0
VERTEX
8
SCHNITTKANTE
10
2407.6607
20
-29.6214
30
0.0
0
VERTEX
8
SCHNITTKANTE
10
2412.1920
20
-29.7887
30
0.0
0
VERTEX
8
SCHNITTKANTE
10
2416.7232
20
-29.9162
30
0.0
0
VERTEX
8
SCHNITTKANTE
10
2421.2545
20
-29.9974
30
0.0
0
VERTEX
8
SCHNITTKANTE
10
2425.7857
20
-30.0259
30
0.0
0
VERTEX
8
SCHNITTKANTE
10
2425.7857
20
-1090.0259
30
0.0
0
VERTEX
8
SCHNITTKANTE
10
2419.9900
20
-1090.0562
30
0.0
0
VERTEX
8
SCHNITTKANTE
10
2414.4593
20
-1090.1377
30
0.0
0
VERTEX
8
SCHNITTKANTE
10
2409.1214
20
-1090.2565
30
0.0
0
VERTEX
8
SCHNITTKANTE
10
2403.9039
20
-1090.3986
30
0.0
0
VERTEX
8
SCHNITTKANTE
10
2398.7347
20
-1090.5500
30
0.0
0
VERTEX
8
SCHNITTKANTE
10
2393.5414
20
-1090.6968
30
0.0
0
VERTEX
8
SCHNITTKANTE
10
2388.2516
20
-1090.8249
30
0.0
0
VERTEX
8
SCHNITTKANTE
10
2382.7932
20
-1090.9204
30
0.0
0
VERTEX
8
SCHNITTKANTE
10
2377.0939
20
-1090.9693
30
0.0
0
VERTEX
8
SCHNITTKANTE
10
2371.0812
20
-1090.9577
30
0.0
0
VERTEX
8
SCHNITTKANTE
10
2364.6831
20
-1090.8715
30
0.0
0
VERTEX
8
SCHNITTKANTE
10
2357.8271
20
-1090.6968
30
0.0
0
VERTEX
8
SCHNITTKANTE
10
2350.4409
20
-1090.4196
30
0.0
0
VERTEX
8
SCHNITTKANTE
10
2342.4524
20
-1090.0259
30
0.0
0
VERTEX
8
SCHNITTKANTE
10
2334.0234
20
-1089.5734
30
0.0
0
VERTEX
8
SCHNITTKANTE
10
2325.3475
20
-1089.1177
30
0.0
0
VERTEX
8
SCHNITTKANTE
10
2316.4001
20
-1088.6418
30
0.0
0
VERTEX
8
SCHNITTKANTE
10
2307.1566
20
-1088.1290
30
0.0
0
VERTEX
8
SCHNITTKANTE
10
2297.5921
20
-1087.5622
30
0.0
0
VERTEX
8
SCHNITTKANTE
10
2287.6820
20
-1086.9245
30
0.0
0
VERTEX
8
SCHNITTKANTE
10
2277.4017
20
-1086.1991
30
0.0
0
VERTEX
8
SCHNITTKANTE
10
2266.7264
20
-1085.3689
30
0.0
0
VERTEX
8
SCHNITTKANTE
10
2255.6315
20
-1084.4171
30
0.0
0
VERTEX
8
SCHNITTKANTE
10
2244.0922
20
-1083.3268
30
0.0
0
VERTEX
8
SCHNITTKANTE
10
2232.0840
20
-1082.0811
30
0.0
0
VERTEX
8
SCHNITTKANTE
10
2219.5820
20
-1080.6629
30
0.0
0
VERTEX
8
SCHNITTKANTE
10
2206.5616
20
-1079.0555
30
0.0
0
VERTEX
8
SCHNITTKANTE
10
2192.9982
20
-1077.2418
30
0.0
0
VERTEX
8
SCHNITTKANTE
10
2178.7186
20
-1075.1804
30
0.0
0
VERTEX
8
SCHNITTKANTE
10
2163.6308
20
-1072.8615
30
0.0
0
VERTEX
8
SCHNITTKANTE
10
2147.8319
20
-1070.3160
30
0.0
0
VERTEX
8
SCHNITTKANTE
10
2131.4188
20
-1067.5749
30
0.0
0
VERTEX
8
SCHNITTKANTE
10
2114.4885
20
-1064.6690
30
0.0
0
VERTEX
8
SCHNITTKANTE
10
2097.1379
20
-1061.6292
30
0.0
0
VERTEX
8
SCHNITTKANTE
10
2079.4641
20
-1058.4864
30
0.0
0
VERTEX
8
SCHNITTKANTE
10
2061.5640
20
-1055.2715
30
0.0
0
VERTEX
8
SCHNITTKANTE
10
2043.5346
20
-1052.0154
30
0.0
0
VERTEX
8
SCHNITTKANTE
10
2025.4729
20
-1048.7491
30
0.0
0
VERTEX
8
SCHNITTKANTE
10
2007.4758
20
-1045.5033
30
0.0
0
VERTEX
8
SCHNITTKANTE
10
1989.6404
20
-1042.3090
30
0.0
0
VERTEX
8
SCHNITTKANTE
10
1972.0635
20
-1039.1971
30
0.0
0
SEQEND
8
SCHNITTKANTE
0
POLYLINE
8
ABNAEHER
66
1
10
0.0
20
0.0
30
0.0
70
0
0
VERTEX
8
ABNAEHER
10
2324.8320
20
-18.8454
30
0.0
0
VERTEX
8
ABNAEHER
10
2334.1445
20
-165.0259
30
0.0
0
SEQEND
8
ABNAEHER
0
POLYLINE
8
ABNAEHER
66
1
10
0.0
20
0.0
30
0.0
70
0
0
VERTEX
8
ABNAEHER
10
2334.1445
20
-165.0259
30
0.0
0
VERTEX
8
ABNAEHER
10
2343.4570
20
-23.2593
30
0.0
0
SEQEND
8
ABNAEHER
0
POLYLINE
8
SCHLITZ
66
1
10
0.0
20
0.0
30
0.0
70
0
0
VERTEX
8
SCHLITZ
10
2425.7857
20
-30.0259
30
0.0
0
VERTEX
8
SCHLITZ
10
2425.7857
20
-230.0259
30
0.0
0
SEQEND
8
SCHLITZ
0
POLYLINE
8
FADENLAUF
66
1
10
0.0
20
0.0
30
0.0
70
0
0
VERTEX
8
FADENLAUF
10
2365.7857
20
-230.0259
30
0.0
0
VERTEX
8
FADENLAUF
10
2365.7857
20
-730.0259
30
0.0
0
SEQEND
8
FADENLAUF
0
POLYLINE
8
FADENLAUF
66
1
10
0.0
20
0.0
30
0.0
70
0
0
VERTEX
8
FADENLAUF
10
2355.7857
20
-710.0259
30
0.0
0
VERTEX
8
FADENLAUF
10
2365.7857
20
-730.0259
30
0.0
0
VERTEX
8
FADENLAUF
10
2375.7857
20
-710.0259
30
0.0
0
SEQEND
8
FADENLAUF
0
TEXT
8
TEXT
10
2125.7857
20
-330.0259
30
0.0
40
9.0000
1
Rock RT 2x - hM = Naht + Reiszverschluss
0
ENDSEC
0
EOF
